<svg xmlns="http://www.w3.org/2000/svg" width="42.181" height="63.962" viewBox="0 0 42.181 63.962">
  <g id="LOGO" transform="translate(-1015.638 765.738)">
    <path id="Trazado_368" data-name="Trazado 368" d="M1084.587-694.042a22.719,22.719,0,0,0-5.986-8.02,18.877,18.877,0,0,0-4.311-2.712,16.189,16.189,0,0,0-4.919-1.381,6.468,6.468,0,0,0-6.546,3.683,6.48,6.48,0,0,0-.381,1.043,6.454,6.454,0,0,0,3.494,7.536l.756.353c.7.328,1.382.608,2.058.922s1.35.658,2.011,1.034a11.008,11.008,0,0,1,3.535,3.057,11.736,11.736,0,0,1,2.038,4.574,12.041,12.041,0,0,1-.093,5.311,13.249,13.249,0,0,1-.944,2.651,13.051,13.051,0,0,1-1.541,2.445,13.863,13.863,0,0,1-4.678,3.779,14.828,14.828,0,0,1-6.2,1.549,15.887,15.887,0,0,1-6.673-1.269l-.015-.007a.86.86,0,0,0-1.01.26.86.86,0,0,0,.143,1.208,17.737,17.737,0,0,0,3.343,2.085,18.406,18.406,0,0,0,3.823,1.319c.109.024.221.042.331.064v3.42a2.8,2.8,0,0,0,2.8,2.8,2.8,2.8,0,0,0,2.8-2.8v-3.142a19.017,19.017,0,0,0,2.381-.386,19.622,19.622,0,0,0,7.828-3.765,20.7,20.7,0,0,0,5.678-7.018,21.5,21.5,0,0,0,1.834-5.47,21.386,21.386,0,0,0,.382-3.641A22.18,22.18,0,0,0,1084.587-694.042Z" transform="translate(-28.71 -43.439)" fill="#fff"/>
    <path id="Trazado_369" data-name="Trazado 369" d="M1032.8-717.92a6.468,6.468,0,0,0,6.546-3.683,6.483,6.483,0,0,0,.381-1.043,6.453,6.453,0,0,0-3.495-7.536l-.756-.354c-.7-.328-1.382-.607-2.058-.922s-1.35-.658-2.01-1.033a11.007,11.007,0,0,1-3.535-3.057,11.734,11.734,0,0,1-2.038-4.574,12.041,12.041,0,0,1,.093-5.311,13.248,13.248,0,0,1,.944-2.651,13.04,13.04,0,0,1,1.542-2.445,13.858,13.858,0,0,1,4.678-3.779,14.831,14.831,0,0,1,6.2-1.549,15.886,15.886,0,0,1,6.674,1.269l.015.006a.861.861,0,0,0,1.01-.26.86.86,0,0,0-.143-1.208,17.729,17.729,0,0,0-3.343-2.085,18.383,18.383,0,0,0-3.823-1.319c-.109-.025-.221-.042-.331-.064v-3.42a2.8,2.8,0,0,0-2.8-2.8,2.8,2.8,0,0,0-2.8,2.8v3.142a18.913,18.913,0,0,0-2.381.386,19.614,19.614,0,0,0-7.829,3.765,20.692,20.692,0,0,0-5.678,7.018,21.5,21.5,0,0,0-1.835,5.469,21.4,21.4,0,0,0-.382,3.641,22.182,22.182,0,0,0,1.938,9.483,22.729,22.729,0,0,0,5.986,8.02,18.885,18.885,0,0,0,4.311,2.712A16.189,16.189,0,0,0,1032.8-717.92Z" transform="translate(0 0)" fill="#fff"/>
  </g>
</svg>
